<?xml version="1.0" encoding="UTF-8"?>
<svg width="558px" height="181px" viewBox="0 0 558 181" version="1.1" xmlns="http://www.w3.org/2000/svg" xmlns:xlink="http://www.w3.org/1999/xlink">
    <!-- Generator: Sketch 52.6 (67491) - http://www.bohemiancoding.com/sketch -->
    <title>Group 14</title>
    <desc>Created with Sketch.</desc>
    <defs>
        <polygon id="path-1" points="0.808131973 0.443 166.551788 0.443 166.551788 181 0.808131973 181"></polygon>
        <polygon id="path-3" points="0 181.557 557.097 181.557 557.097 1 0 1"></polygon>
    </defs>
    <g id="小程序走查" stroke="none" stroke-width="1" fill="none" fill-rule="evenodd">
        <g id="Group-14" transform="translate(0.000000, -1.000000)">
            <g id="Group-3" transform="translate(193.000000, 0.557000)">
                <mask id="mask-2" fill="white">
                    <use xlink:href="#path-1"></use>
                </mask>
                <g id="Clip-2"></g>
                <path d="M144.5406,126.9895 C144.5406,126.9895 122.1226,109.6395 109.0476,90.9035 C91.2906,63.2525 66.0776,74.5005 57.6626,88.5565 C49.2716,102.6125 36.1866,111.5215 34.3176,113.8645 C32.4486,116.1945 7.2446,129.7845 12.8396,154.6355 C18.4266,179.4695 38.0646,179.0045 38.0646,179.0045 C38.0646,179.0045 52.5406,180.4215 69.3586,176.6575 C86.1476,172.9155 100.6276,177.5925 100.6276,177.5925 C100.6276,177.5925 139.8846,190.7255 150.6176,165.4265 C161.3466,140.1185 144.5406,126.9895 144.5406,126.9895 M166.4756,77.7785 C166.4756,72.1625 161.8156,55.2785 144.5406,55.2785 C127.2406,55.2785 124.9226,71.2065 124.9226,82.4715 C124.9226,93.2335 125.8406,108.2445 147.3406,107.7665 C168.8316,107.2975 166.4756,83.3975 166.4756,77.7785 M109.0476,58.0945 C123.5266,59.9755 132.8486,44.5035 134.7136,32.7865 C136.5946,21.0775 127.2406,7.4665 116.9766,5.1365 C106.6916,2.7815 93.8506,19.2495 92.6976,29.9785 C91.2906,43.1125 94.5666,56.2125 109.0476,58.0945 M62.3476,56.2335 C73.1706,56.2335 81.9526,43.7505 81.9526,28.3405 C81.9526,12.9175 73.1706,0.4425 62.3476,0.4425 C51.5116,0.4425 42.7416,12.9175 42.7416,28.3405 C42.7416,43.7505 51.5116,56.2335 62.3476,56.2335 M25.8946,95.5965 C45.5336,91.3725 42.8696,67.9135 42.2646,62.7835 C41.3216,54.8705 32.0126,41.0455 19.3816,42.1575 C3.4936,43.5655 1.1756,66.5305 1.1756,66.5305 C-0.9894,77.1355 6.3056,99.8035 25.8946,95.5965" id="Fill-1" fill="#2319DC" mask="url(#mask-2)"></path>
            </g>
            <path d="M258.6324,155.1228 L248.3564,155.1228 C248.3564,155.1228 241.2004,154.7518 238.9944,146.4928 C237.8904,142.8248 239.1794,138.6008 239.7314,136.9538 C240.2784,135.2988 242.6664,131.4448 247.6234,129.9798 L258.6324,129.9798 L258.6324,155.1228 Z M258.8214,103.3668 L258.8214,120.0658 L245.2364,120.0658 C245.2364,120.0658 231.6574,121.1688 226.8824,136.5838 C225.2314,146.8588 228.3554,152.9198 228.8994,154.2048 C229.4504,155.4888 233.8564,163.0108 244.8694,165.2138 L270.3824,165.2138 L270.3824,103.5478 L258.8214,103.3668 Z" id="Fill-4" fill="#FFFFFF"></path>
            <path d="M276.6245,121.531 L276.6245,154.023 C276.6245,154.023 277.1675,162.092 288.5475,165.032 L317.9105,165.032 L317.9105,121.531 L305.2505,121.531 L305.2505,154.205 L293.1385,154.205 C293.1385,154.205 289.2835,153.653 288.5475,150.532 L288.5475,121.35 L276.6245,121.531 Z" id="Fill-6" fill="#FFFFFF"></path>
            <mask id="mask-4" fill="white">
                <use xlink:href="#path-3"></use>
            </mask>
            <g id="Clip-9"></g>
            <path d="M166.937,176.939 L186.608,176.939 L186.608,108.908 L166.937,108.908 L166.937,176.939 Z M166.937,101.325 L186.608,101.325 L186.608,84 L166.937,84 L166.937,101.325 Z" id="Fill-8" fill="#E10601" mask="url(#mask-4)"></path>
            <path d="M138.5459,163.7107 L111.7189,163.7107 C108.1089,162.2657 106.9059,159.8567 106.6649,159.2557 C106.4239,158.6587 105.5829,156.4937 106.5439,154.3237 C108.7099,150.1117 112.3199,149.1527 112.3199,149.1527 L138.5459,149.1527 L138.5459,163.7107 Z M134.9349,108.9657 L92.9489,108.8507 L92.9489,123.1617 L129.7599,123.1617 C129.7599,123.1617 138.5459,125.3267 138.5459,130.8607 L138.5459,135.9167 L105.2199,135.9167 C105.2199,135.9167 92.1089,137.1227 87.8939,152.7597 C87.1749,160.1007 88.1359,163.7067 88.6179,165.0317 C89.0999,166.3577 92.9489,175.0167 104.3759,177.1817 L157.4309,177.1817 L157.4309,128.4557 C157.4309,128.4557 154.9069,111.7327 134.9349,108.9657 Z" id="Fill-10" fill="#E10601" mask="url(#mask-4)"></path>
            <path d="M59.8828,116.5661 C59.8828,116.5661 57.6818,120.5761 51.9308,121.4321 L20.5998,121.4321 L20.5998,101.8601 L51.7698,101.8601 C51.7698,101.8601 58.5678,101.5721 60.7988,106.9491 C60.7988,106.9491 62.1388,112.6421 59.8828,116.5661 M53.0058,160.4131 L53.0058,160.4461 L20.5998,160.4461 L20.5998,140.0661 L52.8328,140.0661 L53.9218,140.2641 C53.9218,140.2641 60.0718,141.4001 62.2998,146.9251 C62.2998,146.9251 63.5908,152.0881 60.7988,155.9541 C60.7988,155.9541 58.7548,159.5321 53.0058,160.4131 M83.5828,153.0601 C84.1528,136.4841 69.2908,130.7701 69.2908,130.7701 C81.8598,124.1991 80.2618,107.6241 80.2618,107.6241 C78.8868,82.2381 47.9038,83.4281 47.9038,83.4281 L-0.0002,83.4281 L-0.0002,177.9851 L54.0818,177.9851 C85.8678,177.8781 83.5828,153.0601 83.5828,153.0601" id="Fill-11" fill="#E10601" mask="url(#mask-4)"></path>
            <path d="M451.3423,111.4508 L421.7903,142.6728 L441.5033,161.9488 C442.2753,162.8498 443.0623,163.3958 443.8653,163.5898 C444.2513,163.7198 444.7653,163.7998 445.4083,163.8308 C445.8913,163.8638 446.8403,163.8788 448.2553,163.8788 L457.5513,163.8788 L457.5513,176.7238 L440.1673,176.7238 C437.0493,176.7548 435.0553,176.6088 434.1873,176.2888 C433.0283,175.9998 431.9373,175.2428 430.9073,173.0428 L410.6013,153.2688 L396.5383,168.7988 C393.7403,172.9608 391.5223,175.0028 389.8833,175.9038 C389.0463,176.3848 388.1783,176.7068 387.2783,176.8688 C386.5063,177.0278 385.3493,177.1088 383.8063,177.1088 L366.9663,177.1088 L366.9663,163.8788 L379.1913,163.8788 C380.9583,163.9758 382.5673,163.2048 384.0153,161.5638 L400.7633,144.0238 L374.1763,113.5428 L394.0463,113.5428 L411.5663,132.4488 L433.0143,111.4508 L451.3423,111.4508 Z M402.6923,94.6368 L402.6923,87.6918 L419.4753,87.6918 L419.4753,94.6368 L457.3943,94.6368 L456.3943,107.3688 L368.1953,107.3688 L368.1953,94.6368 L402.6923,94.6368 Z" id="Fill-12" fill="#E10601" mask="url(#mask-4)"></path>
            <path d="M472.7564,92.2008 L509.4094,92.2008 L509.4094,86.5408 L525.1584,86.5408 L525.1584,92.2008 L557.0974,92.2008 L557.0974,103.7748 L522.7564,103.7748 L519.0564,109.9488 L556.0974,109.9488 L556.0974,120.2958 L513.8834,120.2958 L505.3224,133.4138 L519.9864,133.4138 L519.9864,122.9258 L532.2614,122.9258 L532.2614,133.4138 L556.8674,133.4138 L556.8674,144.3758 L532.2614,144.3758 L532.2614,154.0928 L556.4814,154.0928 L556.4814,165.2808 L532.2614,165.2808 L532.2614,178.1448 L519.9864,178.1448 L519.9864,165.2808 L489.8894,165.2808 L489.8894,154.0928 L519.9864,154.0928 L519.9864,144.3758 L489.8894,144.3758 L489.8894,134.5718 L499.8354,120.2958 L490.2764,120.2958 L490.2764,109.9488 L504.6224,109.9488 L507.7094,103.7748 L485.2594,103.7748 L485.2594,168.2708 C485.4204,173.5758 483.1054,176.1478 478.3154,175.9878 L465.3644,175.9878 L465.3644,165.2808 C467.7414,165.3138 472.8204,164.3498 472.7564,162.3888 L472.7564,92.2008 Z" id="Fill-13" fill="#E10601" mask="url(#mask-4)"></path>
        </g>
    </g>
</svg>